<svg xmlns="http://www.w3.org/2000/svg" viewBox="0 0 512 512" width="512" height="512">
  <!-- Background -->
  <rect width="512" height="512" rx="64" fill="#1a3a6e"/>
  <!-- Hex shape -->
  <polygon points="256,48 432,148 432,348 256,448 80,348 80,148" fill="#8b6914" stroke="#f5c842" stroke-width="8"/>
  <!-- City silhouette -->
  <g fill="#f5c842">
    <!-- Left tower -->
    <rect x="152" y="236" width="76" height="132"/>
    <rect x="146" y="210" width="88" height="30"/>
    <!-- Battlements left -->
    <rect x="146" y="192" width="18" height="22"/>
    <rect x="172" y="192" width="18" height="22"/>
    <rect x="198" y="192" width="18" height="22"/>
    <rect x="216" y="192" width="18" height="22"/>
    <!-- Right tower -->
    <rect x="284" y="212" width="76" height="156"/>
    <rect x="278" y="182" width="88" height="34"/>
    <!-- Battlements right -->
    <rect x="278" y="160" width="18" height="24"/>
    <rect x="304" y="160" width="18" height="24"/>
    <rect x="330" y="160" width="18" height="24"/>
    <rect x="348" y="160" width="18" height="24"/>
    <!-- Door left -->
    <rect x="176" y="308" width="32" height="60" fill="#1a3a6e"/>
    <!-- Door right -->
    <rect x="296" y="320" width="40" height="48" fill="#1a3a6e"/>
    <!-- Connecting wall -->
    <rect x="228" y="280" width="56" height="88"/>
  </g>
</svg>
